<svg id="svg" version="1.1" xmlns="http://www.w3.org/2000/svg" xmlns:xlink="http://www.w3.org/1999/xlink" width="400" height="400" viewBox="0, 0, 400,400"><g id="svgg"><path id="path0" d="M198.935 68.842 C 198.631 68.964,198.306 69.303,198.214 69.593 C 198.122 69.884,197.939 70.122,197.807 70.122 C 197.676 70.122,197.569 70.328,197.569 70.581 C 197.569 70.973,197.040 71.125,193.922 71.629 C 191.916 71.954,190.160 72.307,190.019 72.414 C 189.878 72.521,188.439 72.816,186.820 73.069 C 185.202 73.322,183.820 73.610,183.749 73.709 C 183.679 73.807,181.894 74.154,179.782 74.479 C 177.671 74.804,175.886 75.147,175.816 75.241 C 175.745 75.335,174.018 75.680,171.977 76.008 C 169.936 76.335,168.209 76.682,168.138 76.778 C 168.068 76.874,166.352 77.211,164.326 77.525 C 162.300 77.840,160.457 78.198,160.232 78.322 C 160.006 78.446,158.266 78.795,156.366 79.098 C 154.466 79.401,152.796 79.734,152.655 79.837 C 152.514 79.941,151.132 80.222,149.584 80.462 C 148.036 80.702,146.193 81.060,145.489 81.259 C 143.385 81.854,141.027 82.412,138.452 82.926 C 137.115 83.193,131.759 84.279,126.552 85.339 L 117.083 87.267 107.933 87.268 L 98.784 87.268 98.848 163.724 L 98.912 240.179 200.000 240.179 L 301.088 240.179 301.152 163.724 L 301.216 87.268 292.256 87.268 L 283.295 87.268 274.917 85.599 C 263.037 83.232,256.101 81.733,255.391 81.381 C 255.171 81.271,253.386 80.920,251.424 80.599 C 249.462 80.277,247.799 79.939,247.729 79.846 C 247.658 79.754,245.988 79.422,244.018 79.109 C 242.047 78.797,240.205 78.434,239.923 78.303 C 239.331 78.029,233.540 77.031,232.537 77.031 C 232.166 77.031,231.862 76.939,231.862 76.826 C 231.862 76.713,230.163 76.350,228.087 76.019 C 226.011 75.688,224.255 75.339,224.184 75.243 C 224.114 75.146,222.386 74.800,220.345 74.472 C 218.305 74.145,216.577 73.798,216.507 73.703 C 216.436 73.607,215.054 73.322,213.436 73.069 C 211.817 72.816,210.377 72.521,210.237 72.414 C 210.096 72.307,208.340 71.954,206.334 71.629 C 203.006 71.091,202.687 70.994,202.687 70.510 C 202.687 69.197,200.483 68.217,198.935 68.842 M198.151 72.666 C 198.440 73.771,200.102 74.087,201.554 73.312 L 202.853 72.620 205.521 73.057 C 206.989 73.298,208.650 73.642,209.213 73.822 C 209.776 74.003,211.619 74.360,213.308 74.617 C 214.997 74.874,216.436 75.158,216.507 75.248 C 216.577 75.338,218.305 75.680,220.345 76.008 C 222.386 76.335,224.114 76.682,224.184 76.778 C 224.255 76.874,226.040 77.225,228.151 77.557 C 230.262 77.889,232.047 78.233,232.118 78.322 C 232.188 78.411,233.916 78.751,235.956 79.079 C 237.997 79.406,239.725 79.753,239.795 79.849 C 239.866 79.945,241.622 80.295,243.698 80.626 C 245.774 80.956,247.473 81.320,247.473 81.433 C 247.473 81.545,247.790 81.638,248.177 81.638 C 249.157 81.638,254.396 82.500,260.013 83.584 C 269.864 85.487,277.525 87.037,277.639 87.150 C 277.703 87.215,242.872 87.258,200.235 87.246 C 152.223 87.232,123.005 87.134,123.480 86.987 C 124.210 86.761,131.590 85.273,141.651 83.323 C 144.184 82.831,147.697 82.226,149.456 81.977 C 151.216 81.728,152.713 81.453,152.783 81.367 C 152.853 81.280,154.581 80.944,156.622 80.619 C 158.663 80.294,160.448 79.946,160.589 79.846 C 160.729 79.747,162.514 79.399,164.555 79.074 C 166.596 78.749,168.324 78.406,168.394 78.311 C 168.464 78.216,170.192 77.871,172.233 77.543 C 174.274 77.216,176.001 76.870,176.072 76.775 C 176.142 76.681,177.869 76.335,179.910 76.008 C 181.951 75.680,183.679 75.336,183.749 75.242 C 183.820 75.148,185.489 74.809,187.460 74.489 C 189.431 74.168,191.158 73.818,191.299 73.711 C 191.440 73.603,192.908 73.307,194.562 73.051 C 196.216 72.796,197.569 72.493,197.569 72.378 C 197.569 71.958,198.025 72.183,198.151 72.666 M291.235 163.788 L 291.235 230.327 199.936 230.263 L 108.637 230.198 108.572 164.044 C 108.536 127.658,108.561 97.745,108.628 97.569 C 108.725 97.314,127.233 97.249,199.992 97.249 L 291.235 97.249 291.235 163.788 " stroke="none" fill="#252425" fill-rule="evenodd"></path><path id="path1" d="M115.931 163.660 L 115.931 223.672 200.000 223.672 L 284.069 223.672 284.069 163.660 L 284.069 103.647 200.000 103.647 L 115.931 103.647 115.931 163.660 M240.033 113.244 C 243.408 115.279,244.152 116.911,242.981 119.714 C 241.282 123.780,237.559 123.714,233.099 119.537 C 229.585 116.247,225.706 115.434,221.244 117.054 C 216.257 118.864,215.868 120.099,215.608 134.921 L 215.431 145.083 216.125 145.257 C 216.507 145.353,219.389 145.349,222.530 145.247 L 228.239 145.063 228.669 145.718 C 229.237 146.586,229.213 147.973,228.611 149.005 L 228.123 149.840 222.635 149.968 C 218.016 150.076,217.014 150.168,216.311 150.552 L 215.476 151.008 215.491 155.415 C 215.499 157.838,215.450 165.406,215.384 172.233 C 215.317 179.060,215.345 185.048,215.446 185.541 L 215.630 186.436 217.924 186.757 C 220.608 187.133,221.423 187.699,220.721 188.700 C 220.338 189.247,220.258 189.251,211.319 189.251 C 206.360 189.251,201.555 189.351,200.640 189.474 C 198.592 189.747,197.616 189.220,197.921 188.006 C 198.135 187.154,198.694 186.928,201.856 186.419 C 205.641 185.810,205.757 185.714,205.763 183.167 C 205.766 182.009,205.870 180.359,205.995 179.499 C 206.369 176.909,205.896 151.240,205.468 150.949 C 205.124 150.716,201.297 150.834,199.163 151.144 C 197.815 151.340,197.313 150.979,197.313 149.815 C 197.313 148.717,198.004 148.243,200.094 147.906 C 204.707 147.163,205.815 145.476,206.048 138.836 C 206.181 135.039,206.330 133.757,206.896 131.542 C 207.273 130.064,207.609 128.319,207.642 127.665 C 207.684 126.822,207.967 126.039,208.616 124.978 C 209.120 124.154,209.762 122.952,210.044 122.305 C 210.326 121.659,210.916 120.874,211.355 120.561 C 211.795 120.248,212.498 119.493,212.918 118.883 C 214.860 116.059,219.540 113.545,223.955 112.953 C 231.080 111.997,232.408 111.874,235.078 111.918 L 237.911 111.964 240.033 113.244 M185.040 113.692 C 188.083 115.504,188.605 119.758,186.050 121.908 C 183.114 124.378,178.101 123.226,177.089 119.849 C 176.511 117.920,178.460 113.334,179.983 113.039 C 181.993 112.650,183.651 112.864,185.040 113.692 M187.350 143.277 L 187.936 143.752 187.966 170.468 L 187.996 197.185 187.116 200.128 C 185.972 203.955,185.634 204.588,183.471 206.966 C 182.475 208.061,181.543 209.201,181.400 209.498 C 180.328 211.727,171.988 215.263,166.098 215.985 C 157.113 217.087,153.003 215.175,153.802 210.266 C 154.286 207.294,155.287 206.479,158.655 206.318 L 160.845 206.214 162.553 208.256 C 164.483 210.562,166.707 212.183,168.757 212.779 C 170.633 213.324,170.672 213.317,172.251 212.166 C 173.015 211.608,174.083 210.831,174.625 210.438 C 178.040 207.962,178.819 203.207,178.432 187.202 C 178.197 177.484,178.346 168.106,178.771 165.806 C 178.877 165.237,178.820 164.653,178.624 164.287 C 178.404 163.876,178.318 162.463,178.345 159.709 C 178.424 151.760,177.993 150.646,174.292 149.236 C 171.179 148.050,172.378 146.562,177.501 145.257 C 178.897 144.902,181.017 144.206,182.214 143.711 C 184.728 142.671,186.425 142.528,187.350 143.277 " stroke="none" fill="#e46c4c" fill-rule="evenodd"></path><path id="path2" d="M100.631 81.910 C 96.481 82.728,92.052 86.900,90.985 90.998 C 90.390 93.280,90.393 237.887,90.987 240.169 C 92.078 244.356,96.200 248.231,100.543 249.152 C 102.688 249.606,295.322 249.704,298.108 249.252 C 302.082 248.608,306.153 245.335,307.486 241.715 C 307.746 241.011,308.082 240.273,308.233 240.076 C 308.634 239.554,308.623 91.584,308.223 91.082 C 308.065 90.885,307.788 90.262,307.606 89.699 C 306.512 86.302,302.326 82.759,298.414 81.921 C 297.508 81.726,290.791 81.647,276.955 81.666 C 258.794 81.691,257.015 81.729,258.861 82.054 C 259.987 82.251,261.139 82.520,261.420 82.651 C 261.702 82.781,263.483 83.140,265.378 83.447 C 267.272 83.754,269.000 84.099,269.216 84.214 C 270.552 84.924,275.340 85.221,285.448 85.221 C 296.114 85.221,297.615 85.334,299.478 86.276 C 300.000 86.540,300.662 86.756,300.949 86.756 C 301.237 86.756,301.472 86.882,301.472 87.035 C 301.472 87.189,301.967 87.909,302.574 88.635 C 303.762 90.059,304.389 91.338,304.789 93.154 C 305.130 94.705,305.146 235.761,304.806 237.841 C 304.285 241.019,302.518 243.345,299.485 244.844 L 297.531 245.809 200.653 245.882 C 98.708 245.958,101.651 245.990,99.325 244.789 C 98.016 244.113,95.822 242.076,95.579 241.311 C 95.493 241.040,95.316 240.819,95.184 240.819 C 95.053 240.819,94.964 240.733,94.986 240.627 C 95.009 240.521,94.961 240.262,94.881 240.051 C 94.800 239.840,94.609 239.276,94.456 238.797 C 93.989 237.338,94.075 93.638,94.544 92.093 C 95.117 90.207,95.581 89.493,97.225 87.971 C 100.087 85.322,99.714 85.382,114.395 85.203 C 126.391 85.057,130.329 84.820,131.158 84.193 C 131.299 84.086,132.969 83.749,134.869 83.444 C 136.769 83.138,138.554 82.781,138.836 82.651 C 139.117 82.520,140.269 82.251,141.395 82.054 C 143.232 81.731,141.306 81.694,122.585 81.694 C 111.113 81.694,101.234 81.791,100.631 81.910 M148.177 82.255 C 146.417 82.561,144.805 82.886,144.594 82.976 C 144.383 83.066,142.885 83.382,141.267 83.677 C 132.207 85.331,126.407 85.184,200.256 85.173 C 252.695 85.165,266.191 85.099,264.875 84.855 C 263.960 84.686,262.809 84.419,262.316 84.262 C 261.823 84.106,260.211 83.790,258.733 83.561 C 257.255 83.331,255.816 83.041,255.534 82.914 C 252.743 81.661,251.618 81.636,199.857 81.668 L 151.376 81.698 148.177 82.255 M108.884 97.825 C 108.817 98.001,108.792 127.799,108.828 164.044 L 108.893 229.942 199.936 230.007 L 290.979 230.071 290.979 163.788 L 290.979 97.505 199.992 97.505 C 127.438 97.505,108.980 97.570,108.884 97.825 M284.069 163.660 L 284.069 223.672 200.000 223.672 L 115.931 223.672 115.931 163.660 L 115.931 103.647 200.000 103.647 L 284.069 103.647 284.069 163.660 M229.559 112.216 C 221.181 113.293,221.117 113.306,218.964 114.345 C 216.362 115.601,213.909 117.442,212.918 118.883 C 212.498 119.493,211.795 120.248,211.355 120.561 C 210.916 120.874,210.326 121.659,210.044 122.305 C 209.762 122.952,209.120 124.154,208.616 124.978 C 207.967 126.039,207.684 126.822,207.642 127.665 C 207.609 128.319,207.273 130.064,206.896 131.542 C 206.330 133.757,206.181 135.039,206.048 138.836 C 205.815 145.476,204.707 147.163,200.094 147.906 C 198.004 148.243,197.313 148.717,197.313 149.815 C 197.313 150.979,197.815 151.340,199.163 151.144 C 201.297 150.834,205.124 150.716,205.468 150.949 C 205.896 151.240,206.369 176.909,205.995 179.499 C 205.870 180.359,205.766 182.009,205.763 183.167 C 205.757 185.714,205.641 185.810,201.856 186.419 C 198.694 186.928,198.135 187.154,197.921 188.006 C 197.616 189.220,198.592 189.747,200.640 189.474 C 201.555 189.351,206.360 189.251,211.319 189.251 C 220.258 189.251,220.338 189.247,220.721 188.700 C 221.423 187.699,220.608 187.133,217.924 186.757 L 215.630 186.436 215.446 185.541 C 215.345 185.048,215.317 179.060,215.384 172.233 C 215.450 165.406,215.499 157.838,215.491 155.415 L 215.476 151.008 216.311 150.552 C 217.014 150.168,218.016 150.076,222.635 149.968 L 228.123 149.840 228.611 149.005 C 229.213 147.973,229.237 146.586,228.669 145.718 L 228.239 145.063 222.530 145.247 C 219.389 145.349,216.507 145.353,216.125 145.257 L 215.431 145.083 215.608 134.921 C 215.868 120.099,216.257 118.864,221.244 117.054 C 225.706 115.434,229.585 116.247,233.099 119.537 C 237.559 123.714,241.282 123.780,242.981 119.714 C 244.152 116.911,243.408 115.279,240.033 113.244 L 237.911 111.964 235.078 111.918 C 233.520 111.892,231.036 112.027,229.559 112.216 M179.983 113.039 C 178.460 113.334,176.511 117.920,177.089 119.849 C 178.699 125.223,187.690 123.890,187.623 118.287 C 187.577 114.418,184.342 112.196,179.983 113.039 M182.214 143.711 C 181.017 144.206,178.897 144.902,177.501 145.257 C 172.378 146.562,171.179 148.050,174.292 149.236 C 177.993 150.646,178.424 151.760,178.345 159.709 C 178.318 162.463,178.404 163.876,178.624 164.287 C 178.820 164.653,178.877 165.237,178.771 165.806 C 178.346 168.106,178.197 177.484,178.432 187.202 C 178.819 203.207,178.040 207.962,174.625 210.438 C 174.083 210.831,173.015 211.608,172.251 212.166 C 170.672 213.317,170.633 213.324,168.757 212.779 C 166.707 212.183,164.483 210.562,162.553 208.256 L 160.845 206.214 158.655 206.318 C 155.287 206.479,154.286 207.294,153.802 210.266 C 153.003 215.175,157.113 217.087,166.098 215.985 C 171.988 215.263,180.328 211.727,181.400 209.498 C 181.543 209.201,182.475 208.061,183.471 206.966 C 185.634 204.588,185.972 203.955,187.116 200.128 L 187.996 197.185 187.966 170.468 L 187.936 143.752 187.350 143.277 C 186.425 142.528,184.728 142.671,182.214 143.711 " stroke="none" fill="#eeeeee" fill-rule="evenodd"></path><path id="path3" d="M132.054 83.870 C 131.702 83.933,131.314 84.081,131.191 84.198 C 131.069 84.316,131.468 84.300,132.079 84.163 C 133.788 83.779,133.769 83.562,132.054 83.870 M267.306 83.929 C 267.798 84.152,269.168 84.297,268.949 84.103 C 268.890 84.051,268.381 83.939,267.818 83.853 C 267.105 83.745,266.950 83.768,267.306 83.929 M135.893 84.515 C 135.259 84.660,134.856 84.818,134.997 84.865 C 135.138 84.912,135.886 84.794,136.660 84.602 C 138.289 84.199,137.612 84.122,135.893 84.515 M262.956 84.441 C 263.447 84.664,264.818 84.809,264.598 84.615 C 264.539 84.563,264.031 84.451,263.468 84.365 C 262.754 84.256,262.599 84.279,262.956 84.441 M130.560 85.646 C 123.538 87.070,117.730 86.961,200.256 86.961 C 274.342 86.961,275.960 86.951,273.832 86.492 C 267.480 85.121,272.987 85.221,200.426 85.155 L 133.289 85.093 130.560 85.646 M101.402 85.618 C 98.047 86.521,95.508 88.918,94.544 92.093 C 94.075 93.638,93.989 237.338,94.456 238.797 C 94.609 239.276,94.800 239.840,94.881 240.051 C 94.961 240.262,95.009 240.521,94.986 240.627 C 94.964 240.733,95.053 240.819,95.184 240.819 C 95.316 240.819,95.493 241.040,95.579 241.311 C 95.822 242.076,98.016 244.113,99.325 244.789 C 101.651 245.990,98.708 245.958,200.653 245.882 L 297.531 245.809 299.485 244.844 C 302.518 243.345,304.285 241.019,304.806 237.841 C 305.173 235.596,305.140 94.856,304.771 93.137 C 304.366 91.249,303.688 89.870,302.515 88.548 L 301.493 87.396 301.482 163.852 L 301.472 240.307 300.711 240.307 C 300.273 240.307,299.472 240.645,298.820 241.104 C 297.027 242.368,299.964 242.332,199.565 242.343 C 97.457 242.355,101.952 242.413,100.079 241.056 C 99.510 240.644,98.929 240.307,98.787 240.307 C 98.645 240.307,98.528 240.091,98.528 239.827 C 98.528 239.562,98.356 238.933,98.145 238.427 C 97.627 237.188,97.554 94.180,98.070 92.979 C 98.241 92.583,98.442 91.107,98.518 89.699 L 98.656 87.140 108.509 87.004 C 117.930 86.873,125.028 86.189,125.888 85.329 C 126.218 85.000,102.668 85.277,101.402 85.618 M274.645 85.350 C 275.700 86.405,301.473 87.940,301.472 86.948 C 301.472 86.843,301.237 86.756,300.949 86.756 C 300.662 86.756,300.000 86.540,299.478 86.276 C 297.608 85.330,296.123 85.221,285.165 85.221 C 279.308 85.221,274.573 85.279,274.645 85.350 M108.933 97.440 C 108.868 97.546,149.801 97.604,199.896 97.568 L 290.979 97.503 290.979 163.787 L 290.979 230.070 200.256 230.135 L 109.533 230.199 200.320 230.199 L 291.107 230.198 291.107 163.788 L 291.107 97.377 200.079 97.313 C 150.014 97.277,108.998 97.335,108.933 97.440 " stroke="none" fill="#968d8b" fill-rule="evenodd"></path><path id="path4" d="M140.115 82.406 C 139.463 82.686,140.136 82.686,141.011 82.406 C 141.525 82.241,141.550 82.199,141.139 82.193 C 140.857 82.189,140.397 82.285,140.115 82.406 M265.387 83.685 C 265.739 83.798,266.257 83.890,266.539 83.890 C 266.944 83.890,266.917 83.847,266.411 83.685 C 266.059 83.573,265.541 83.480,265.259 83.480 C 264.854 83.480,264.880 83.523,265.387 83.685 M126.040 86.367 C 125.336 86.547,124.990 86.698,125.272 86.701 C 125.553 86.704,126.360 86.559,127.063 86.378 C 127.767 86.197,128.113 86.047,127.831 86.043 C 127.550 86.040,126.743 86.186,126.040 86.367 M272.553 86.244 C 272.905 86.357,273.480 86.447,273.832 86.445 C 274.407 86.440,274.394 86.420,273.704 86.244 C 272.622 85.969,271.693 85.969,272.553 86.244 M118.490 86.756 C 117.630 87.032,118.559 87.032,119.642 86.756 C 120.331 86.581,120.344 86.560,119.770 86.556 C 119.418 86.553,118.842 86.644,118.490 86.756 M280.614 86.756 C 281.697 87.032,282.626 87.032,281.766 86.756 C 281.414 86.644,280.838 86.553,280.486 86.556 C 279.912 86.560,279.925 86.581,280.614 86.756 M123.304 87.051 C 122.979 87.142,157.607 87.213,200.256 87.208 C 242.905 87.203,277.569 87.154,277.287 87.100 C 276.386 86.926,123.918 86.878,123.304 87.051 M98.699 87.183 C 98.605 87.277,98.528 88.357,98.528 89.583 C 98.528 90.985,98.386 92.153,98.145 92.731 C 97.562 94.126,97.562 237.032,98.145 238.427 C 98.356 238.933,98.528 239.562,98.528 239.827 C 98.528 240.091,98.615 240.307,98.720 240.307 C 98.826 240.307,98.883 205.875,98.848 163.791 L 98.783 87.274 108.316 87.204 L 117.850 87.134 108.360 87.073 C 103.140 87.040,98.793 87.089,98.699 87.183 M292.003 87.202 L 301.217 87.274 301.152 163.791 C 301.117 205.875,301.174 240.307,301.280 240.307 C 301.386 240.307,301.443 205.845,301.408 163.724 L 301.344 87.140 292.066 87.135 L 282.789 87.130 292.003 87.202 M108.628 97.569 C 108.258 98.542,108.649 230.192,109.021 230.219 C 109.244 230.236,109.270 230.202,109.084 230.140 C 108.828 230.054,108.776 216.679,108.828 163.641 C 108.864 127.125,108.861 97.249,108.821 97.249 C 108.782 97.249,108.694 97.393,108.628 97.569 M99.936 240.956 C 100.358 241.302,101.107 241.730,101.599 241.906 C 102.311 242.161,122.496 242.226,199.744 242.226 L 296.993 242.226 298.195 241.520 C 298.857 241.131,299.468 240.699,299.554 240.560 C 299.657 240.394,265.421 240.310,199.439 240.316 L 99.168 240.326 99.936 240.956 " stroke="none" fill="#6c6c6c" fill-rule="evenodd"></path></g></svg>